<mxfile host="app.diagrams.net" agent="Mozilla/5.0 (Windows NT 10.0; Win64; x64) AppleWebKit/537.36 (KHTML, like Gecko) Chrome/131.0.0.0 Safari/537.36" version="26.0.5">
  <diagram name="PÃ¡gina-1" id="7G_4iHXvqfSIgGpNIgua">
    <mxGraphModel dx="2691" dy="2088" grid="1" gridSize="10" guides="1" tooltips="1" connect="1" arrows="1" fold="1" page="1" pageScale="1" pageWidth="827" pageHeight="1169" math="0" shadow="0">
      <root>
        <mxCell id="0" />
        <mxCell id="1" parent="0" />
        <mxCell id="ZYq4n5y1qO-wRykseq7i-134" value="" style="rounded=0;whiteSpace=wrap;html=1;fillColor=none;" parent="1" vertex="1">
          <mxGeometry x="-730" y="-140" width="1330" height="690" as="geometry" />
        </mxCell>
        <mxCell id="ZYq4n5y1qO-wRykseq7i-113" value="" style="rounded=0;whiteSpace=wrap;html=1;fillColor=none;" parent="1" vertex="1">
          <mxGeometry x="-201" y="-60" width="330" height="580" as="geometry" />
        </mxCell>
        <mxCell id="ZYq4n5y1qO-wRykseq7i-130" value="" style="rounded=0;whiteSpace=wrap;html=1;fillColor=none;" parent="1" vertex="1">
          <mxGeometry x="-580" y="-60" width="330" height="580" as="geometry" />
        </mxCell>
        <mxCell id="ZYq4n5y1qO-wRykseq7i-62" value="" style="rounded=0;whiteSpace=wrap;html=1;fillColor=none;" parent="1" vertex="1">
          <mxGeometry x="770" y="-250" width="1720" height="510" as="geometry" />
        </mxCell>
        <mxCell id="ZYq4n5y1qO-wRykseq7i-6" value="Enemy" style="swimlane;fontStyle=1;align=center;verticalAlign=top;childLayout=stackLayout;horizontal=1;startSize=26;horizontalStack=0;resizeParent=1;resizeParentMax=0;resizeLast=0;collapsible=1;marginBottom=0;whiteSpace=wrap;html=1;" parent="1" vertex="1">
          <mxGeometry x="1760" y="-50" width="160" height="86" as="geometry" />
        </mxCell>
        <mxCell id="ZYq4n5y1qO-wRykseq7i-7" value="+ field: type" style="text;strokeColor=none;fillColor=none;align=left;verticalAlign=top;spacingLeft=4;spacingRight=4;overflow=hidden;rotatable=0;points=[[0,0.5],[1,0.5]];portConstraint=eastwest;whiteSpace=wrap;html=1;" parent="ZYq4n5y1qO-wRykseq7i-6" vertex="1">
          <mxGeometry y="26" width="160" height="26" as="geometry" />
        </mxCell>
        <mxCell id="ZYq4n5y1qO-wRykseq7i-8" value="" style="line;strokeWidth=1;fillColor=none;align=left;verticalAlign=middle;spacingTop=-1;spacingLeft=3;spacingRight=3;rotatable=0;labelPosition=right;points=[];portConstraint=eastwest;strokeColor=inherit;" parent="ZYq4n5y1qO-wRykseq7i-6" vertex="1">
          <mxGeometry y="52" width="160" height="8" as="geometry" />
        </mxCell>
        <mxCell id="ZYq4n5y1qO-wRykseq7i-9" value="+ method(type): type" style="text;strokeColor=none;fillColor=none;align=left;verticalAlign=top;spacingLeft=4;spacingRight=4;overflow=hidden;rotatable=0;points=[[0,0.5],[1,0.5]];portConstraint=eastwest;whiteSpace=wrap;html=1;" parent="ZYq4n5y1qO-wRykseq7i-6" vertex="1">
          <mxGeometry y="60" width="160" height="26" as="geometry" />
        </mxCell>
        <mxCell id="ZYq4n5y1qO-wRykseq7i-10" value="Defense" style="swimlane;fontStyle=1;align=center;verticalAlign=top;childLayout=stackLayout;horizontal=1;startSize=26;horizontalStack=0;resizeParent=1;resizeParentMax=0;resizeLast=0;collapsible=1;marginBottom=0;whiteSpace=wrap;html=1;" parent="1" vertex="1">
          <mxGeometry x="1020" y="-54" width="160" height="86" as="geometry" />
        </mxCell>
        <mxCell id="ZYq4n5y1qO-wRykseq7i-11" value="+ field: type" style="text;strokeColor=none;fillColor=none;align=left;verticalAlign=top;spacingLeft=4;spacingRight=4;overflow=hidden;rotatable=0;points=[[0,0.5],[1,0.5]];portConstraint=eastwest;whiteSpace=wrap;html=1;" parent="ZYq4n5y1qO-wRykseq7i-10" vertex="1">
          <mxGeometry y="26" width="160" height="26" as="geometry" />
        </mxCell>
        <mxCell id="ZYq4n5y1qO-wRykseq7i-12" value="" style="line;strokeWidth=1;fillColor=none;align=left;verticalAlign=middle;spacingTop=-1;spacingLeft=3;spacingRight=3;rotatable=0;labelPosition=right;points=[];portConstraint=eastwest;strokeColor=inherit;" parent="ZYq4n5y1qO-wRykseq7i-10" vertex="1">
          <mxGeometry y="52" width="160" height="8" as="geometry" />
        </mxCell>
        <mxCell id="ZYq4n5y1qO-wRykseq7i-13" value="+ method(type): type" style="text;strokeColor=none;fillColor=none;align=left;verticalAlign=top;spacingLeft=4;spacingRight=4;overflow=hidden;rotatable=0;points=[[0,0.5],[1,0.5]];portConstraint=eastwest;whiteSpace=wrap;html=1;" parent="ZYq4n5y1qO-wRykseq7i-10" vertex="1">
          <mxGeometry y="60" width="160" height="26" as="geometry" />
        </mxCell>
        <mxCell id="ZYq4n5y1qO-wRykseq7i-14" value="Level1Zombie" style="swimlane;fontStyle=1;align=center;verticalAlign=top;childLayout=stackLayout;horizontal=1;startSize=26;horizontalStack=0;resizeParent=1;resizeParentMax=0;resizeLast=0;collapsible=1;marginBottom=0;whiteSpace=wrap;html=1;" parent="1" vertex="1">
          <mxGeometry x="1540" y="130" width="160" height="86" as="geometry" />
        </mxCell>
        <mxCell id="ZYq4n5y1qO-wRykseq7i-15" value="+ field: type" style="text;strokeColor=none;fillColor=none;align=left;verticalAlign=top;spacingLeft=4;spacingRight=4;overflow=hidden;rotatable=0;points=[[0,0.5],[1,0.5]];portConstraint=eastwest;whiteSpace=wrap;html=1;" parent="ZYq4n5y1qO-wRykseq7i-14" vertex="1">
          <mxGeometry y="26" width="160" height="26" as="geometry" />
        </mxCell>
        <mxCell id="ZYq4n5y1qO-wRykseq7i-16" value="" style="line;strokeWidth=1;fillColor=none;align=left;verticalAlign=middle;spacingTop=-1;spacingLeft=3;spacingRight=3;rotatable=0;labelPosition=right;points=[];portConstraint=eastwest;strokeColor=inherit;" parent="ZYq4n5y1qO-wRykseq7i-14" vertex="1">
          <mxGeometry y="52" width="160" height="8" as="geometry" />
        </mxCell>
        <mxCell id="ZYq4n5y1qO-wRykseq7i-17" value="+ method(type): type" style="text;strokeColor=none;fillColor=none;align=left;verticalAlign=top;spacingLeft=4;spacingRight=4;overflow=hidden;rotatable=0;points=[[0,0.5],[1,0.5]];portConstraint=eastwest;whiteSpace=wrap;html=1;" parent="ZYq4n5y1qO-wRykseq7i-14" vertex="1">
          <mxGeometry y="60" width="160" height="26" as="geometry" />
        </mxCell>
        <mxCell id="ZYq4n5y1qO-wRykseq7i-18" value="Level2Zombie&lt;div&gt;&lt;br&gt;&lt;/div&gt;" style="swimlane;fontStyle=1;align=center;verticalAlign=top;childLayout=stackLayout;horizontal=1;startSize=26;horizontalStack=0;resizeParent=1;resizeParentMax=0;resizeLast=0;collapsible=1;marginBottom=0;whiteSpace=wrap;html=1;" parent="1" vertex="1">
          <mxGeometry x="1940" y="130" width="160" height="86" as="geometry" />
        </mxCell>
        <mxCell id="ZYq4n5y1qO-wRykseq7i-19" value="+ field: type" style="text;strokeColor=none;fillColor=none;align=left;verticalAlign=top;spacingLeft=4;spacingRight=4;overflow=hidden;rotatable=0;points=[[0,0.5],[1,0.5]];portConstraint=eastwest;whiteSpace=wrap;html=1;" parent="ZYq4n5y1qO-wRykseq7i-18" vertex="1">
          <mxGeometry y="26" width="160" height="26" as="geometry" />
        </mxCell>
        <mxCell id="ZYq4n5y1qO-wRykseq7i-20" value="" style="line;strokeWidth=1;fillColor=none;align=left;verticalAlign=middle;spacingTop=-1;spacingLeft=3;spacingRight=3;rotatable=0;labelPosition=right;points=[];portConstraint=eastwest;strokeColor=inherit;" parent="ZYq4n5y1qO-wRykseq7i-18" vertex="1">
          <mxGeometry y="52" width="160" height="8" as="geometry" />
        </mxCell>
        <mxCell id="ZYq4n5y1qO-wRykseq7i-21" value="+ method(type): type" style="text;strokeColor=none;fillColor=none;align=left;verticalAlign=top;spacingLeft=4;spacingRight=4;overflow=hidden;rotatable=0;points=[[0,0.5],[1,0.5]];portConstraint=eastwest;whiteSpace=wrap;html=1;" parent="ZYq4n5y1qO-wRykseq7i-18" vertex="1">
          <mxGeometry y="60" width="160" height="26" as="geometry" />
        </mxCell>
        <mxCell id="ZYq4n5y1qO-wRykseq7i-43" style="edgeStyle=orthogonalEdgeStyle;rounded=0;orthogonalLoop=1;jettySize=auto;html=1;entryX=0.5;entryY=1;entryDx=0;entryDy=0;" parent="1" source="ZYq4n5y1qO-wRykseq7i-26" target="ZYq4n5y1qO-wRykseq7i-10" edge="1">
          <mxGeometry relative="1" as="geometry">
            <Array as="points">
              <mxPoint x="890" y="86" />
              <mxPoint x="1100" y="86" />
            </Array>
          </mxGeometry>
        </mxCell>
        <mxCell id="ZYq4n5y1qO-wRykseq7i-26" value="Turret1" style="swimlane;fontStyle=1;align=center;verticalAlign=top;childLayout=stackLayout;horizontal=1;startSize=26;horizontalStack=0;resizeParent=1;resizeParentMax=0;resizeLast=0;collapsible=1;marginBottom=0;whiteSpace=wrap;html=1;" parent="1" vertex="1">
          <mxGeometry x="810" y="136" width="160" height="86" as="geometry" />
        </mxCell>
        <mxCell id="ZYq4n5y1qO-wRykseq7i-27" value="+ field: type" style="text;strokeColor=none;fillColor=none;align=left;verticalAlign=top;spacingLeft=4;spacingRight=4;overflow=hidden;rotatable=0;points=[[0,0.5],[1,0.5]];portConstraint=eastwest;whiteSpace=wrap;html=1;" parent="ZYq4n5y1qO-wRykseq7i-26" vertex="1">
          <mxGeometry y="26" width="160" height="26" as="geometry" />
        </mxCell>
        <mxCell id="ZYq4n5y1qO-wRykseq7i-28" value="" style="line;strokeWidth=1;fillColor=none;align=left;verticalAlign=middle;spacingTop=-1;spacingLeft=3;spacingRight=3;rotatable=0;labelPosition=right;points=[];portConstraint=eastwest;strokeColor=inherit;" parent="ZYq4n5y1qO-wRykseq7i-26" vertex="1">
          <mxGeometry y="52" width="160" height="8" as="geometry" />
        </mxCell>
        <mxCell id="ZYq4n5y1qO-wRykseq7i-29" value="+ method(type): type" style="text;strokeColor=none;fillColor=none;align=left;verticalAlign=top;spacingLeft=4;spacingRight=4;overflow=hidden;rotatable=0;points=[[0,0.5],[1,0.5]];portConstraint=eastwest;whiteSpace=wrap;html=1;" parent="ZYq4n5y1qO-wRykseq7i-26" vertex="1">
          <mxGeometry y="60" width="160" height="26" as="geometry" />
        </mxCell>
        <mxCell id="ZYq4n5y1qO-wRykseq7i-30" value="Turret2" style="swimlane;fontStyle=1;align=center;verticalAlign=top;childLayout=stackLayout;horizontal=1;startSize=26;horizontalStack=0;resizeParent=1;resizeParentMax=0;resizeLast=0;collapsible=1;marginBottom=0;whiteSpace=wrap;html=1;" parent="1" vertex="1">
          <mxGeometry x="1200" y="140" width="160" height="86" as="geometry" />
        </mxCell>
        <mxCell id="ZYq4n5y1qO-wRykseq7i-31" value="+ field: type" style="text;strokeColor=none;fillColor=none;align=left;verticalAlign=top;spacingLeft=4;spacingRight=4;overflow=hidden;rotatable=0;points=[[0,0.5],[1,0.5]];portConstraint=eastwest;whiteSpace=wrap;html=1;" parent="ZYq4n5y1qO-wRykseq7i-30" vertex="1">
          <mxGeometry y="26" width="160" height="26" as="geometry" />
        </mxCell>
        <mxCell id="ZYq4n5y1qO-wRykseq7i-32" value="" style="line;strokeWidth=1;fillColor=none;align=left;verticalAlign=middle;spacingTop=-1;spacingLeft=3;spacingRight=3;rotatable=0;labelPosition=right;points=[];portConstraint=eastwest;strokeColor=inherit;" parent="ZYq4n5y1qO-wRykseq7i-30" vertex="1">
          <mxGeometry y="52" width="160" height="8" as="geometry" />
        </mxCell>
        <mxCell id="ZYq4n5y1qO-wRykseq7i-33" value="+ method(type): type" style="text;strokeColor=none;fillColor=none;align=left;verticalAlign=top;spacingLeft=4;spacingRight=4;overflow=hidden;rotatable=0;points=[[0,0.5],[1,0.5]];portConstraint=eastwest;whiteSpace=wrap;html=1;" parent="ZYq4n5y1qO-wRykseq7i-30" vertex="1">
          <mxGeometry y="60" width="160" height="26" as="geometry" />
        </mxCell>
        <mxCell id="ZYq4n5y1qO-wRykseq7i-42" style="edgeStyle=orthogonalEdgeStyle;rounded=0;orthogonalLoop=1;jettySize=auto;html=1;entryX=0.503;entryY=1;entryDx=0;entryDy=0;entryPerimeter=0;" parent="1" source="ZYq4n5y1qO-wRykseq7i-30" target="ZYq4n5y1qO-wRykseq7i-13" edge="1">
          <mxGeometry relative="1" as="geometry" />
        </mxCell>
        <mxCell id="ZYq4n5y1qO-wRykseq7i-45" value="" style="rounded=0;whiteSpace=wrap;html=1;fillColor=none;" parent="1" vertex="1">
          <mxGeometry x="-600" y="-690" width="916" height="370" as="geometry" />
        </mxCell>
        <mxCell id="ZYq4n5y1qO-wRykseq7i-46" value="Events" style="swimlane;fontStyle=0;childLayout=stackLayout;horizontal=1;startSize=52;fillColor=none;horizontalStack=0;resizeParent=1;resizeParentMax=0;resizeLast=0;collapsible=1;marginBottom=0;whiteSpace=wrap;html=1;" parent="1" vertex="1">
          <mxGeometry x="-74" y="-420" width="140" height="52" as="geometry" />
        </mxCell>
        <mxCell id="ZYq4n5y1qO-wRykseq7i-48" style="edgeStyle=orthogonalEdgeStyle;rounded=0;orthogonalLoop=1;jettySize=auto;html=1;endArrow=none;endFill=0;" parent="1" source="ZYq4n5y1qO-wRykseq7i-49" edge="1">
          <mxGeometry relative="1" as="geometry">
            <mxPoint x="-194" y="-584" as="targetPoint" />
            <Array as="points">
              <mxPoint x="-354" y="-564" />
              <mxPoint x="-194" y="-564" />
            </Array>
          </mxGeometry>
        </mxCell>
        <mxCell id="ZYq4n5y1qO-wRykseq7i-49" value="TurretSelection" style="swimlane;fontStyle=0;childLayout=stackLayout;horizontal=1;startSize=26;fillColor=none;horizontalStack=0;resizeParent=1;resizeParentMax=0;resizeLast=0;collapsible=1;marginBottom=0;whiteSpace=wrap;html=1;" parent="1" vertex="1">
          <mxGeometry x="-530" y="-550" width="140" height="52" as="geometry" />
        </mxCell>
        <mxCell id="ZYq4n5y1qO-wRykseq7i-54" style="edgeStyle=orthogonalEdgeStyle;rounded=0;orthogonalLoop=1;jettySize=auto;html=1;endArrow=none;endFill=0;" parent="1" source="ZYq4n5y1qO-wRykseq7i-55" edge="1">
          <mxGeometry relative="1" as="geometry">
            <mxPoint x="-164" y="-584" as="targetPoint" />
          </mxGeometry>
        </mxCell>
        <mxCell id="ZYq4n5y1qO-wRykseq7i-55" value="SceneManager" style="swimlane;fontStyle=0;childLayout=stackLayout;horizontal=1;startSize=26;fillColor=none;horizontalStack=0;resizeParent=1;resizeParentMax=0;resizeLast=0;collapsible=1;marginBottom=0;whiteSpace=wrap;html=1;" parent="1" vertex="1">
          <mxGeometry x="-320" y="-540" width="140" height="52" as="geometry" />
        </mxCell>
        <mxCell id="ZYq4n5y1qO-wRykseq7i-56" style="edgeStyle=orthogonalEdgeStyle;rounded=0;orthogonalLoop=1;jettySize=auto;html=1;endArrow=none;endFill=0;" parent="1" source="ZYq4n5y1qO-wRykseq7i-57" edge="1">
          <mxGeometry relative="1" as="geometry">
            <mxPoint x="-134" y="-584" as="targetPoint" />
            <Array as="points">
              <mxPoint x="40" y="-564" />
              <mxPoint x="-134" y="-564" />
            </Array>
          </mxGeometry>
        </mxCell>
        <mxCell id="ZYq4n5y1qO-wRykseq7i-57" value="ScoreUI" style="swimlane;fontStyle=0;childLayout=stackLayout;horizontal=1;startSize=26;fillColor=none;horizontalStack=0;resizeParent=1;resizeParentMax=0;resizeLast=0;collapsible=1;marginBottom=0;whiteSpace=wrap;html=1;" parent="1" vertex="1">
          <mxGeometry x="-150" y="-531" width="140" height="52" as="geometry" />
        </mxCell>
        <mxCell id="ZYq4n5y1qO-wRykseq7i-58" style="edgeStyle=orthogonalEdgeStyle;rounded=0;orthogonalLoop=1;jettySize=auto;html=1;entryX=1;entryY=0.75;entryDx=0;entryDy=0;endArrow=none;endFill=0;" parent="1" source="ZYq4n5y1qO-wRykseq7i-59" target="ZYq4n5y1qO-wRykseq7i-60" edge="1">
          <mxGeometry relative="1" as="geometry">
            <Array as="points">
              <mxPoint x="206" y="-595" />
            </Array>
          </mxGeometry>
        </mxCell>
        <mxCell id="ZYq4n5y1qO-wRykseq7i-59" value="UpgradeManager" style="swimlane;fontStyle=0;childLayout=stackLayout;horizontal=1;startSize=26;fillColor=none;horizontalStack=0;resizeParent=1;resizeParentMax=0;resizeLast=0;collapsible=1;marginBottom=0;whiteSpace=wrap;html=1;" parent="1" vertex="1">
          <mxGeometry x="66" y="-540" width="140" height="52" as="geometry" />
        </mxCell>
        <mxCell id="ZYq4n5y1qO-wRykseq7i-60" value="GameManager" style="swimlane;fontStyle=0;childLayout=stackLayout;horizontal=1;startSize=26;fillColor=none;horizontalStack=0;resizeParent=1;resizeParentMax=0;resizeLast=0;collapsible=1;marginBottom=0;whiteSpace=wrap;html=1;" parent="1" vertex="1">
          <mxGeometry x="-224" y="-634" width="140" height="52" as="geometry" />
        </mxCell>
        <mxCell id="ZYq4n5y1qO-wRykseq7i-61" value="Managers Layer" style="html=1;whiteSpace=wrap;" parent="1" vertex="1">
          <mxGeometry x="-600" y="-730" width="150" height="40" as="geometry" />
        </mxCell>
        <mxCell id="ZYq4n5y1qO-wRykseq7i-65" style="edgeStyle=orthogonalEdgeStyle;rounded=0;orthogonalLoop=1;jettySize=auto;html=1;entryX=0.5;entryY=1;entryDx=0;entryDy=0;endArrow=none;endFill=0;" parent="1" edge="1">
          <mxGeometry relative="1" as="geometry">
            <Array as="points">
              <mxPoint x="1140" y="-360" />
              <mxPoint x="1130" y="-360" />
            </Array>
            <mxPoint x="1130" y="-418" as="targetPoint" />
          </mxGeometry>
        </mxCell>
        <mxCell id="ZYq4n5y1qO-wRykseq7i-69" style="edgeStyle=orthogonalEdgeStyle;rounded=0;orthogonalLoop=1;jettySize=auto;html=1;entryX=0.5;entryY=1;entryDx=0;entryDy=0;endArrow=none;endFill=0;" parent="1" edge="1">
          <mxGeometry relative="1" as="geometry">
            <mxPoint x="1130" y="-548" as="targetPoint" />
          </mxGeometry>
        </mxCell>
        <mxCell id="ZYq4n5y1qO-wRykseq7i-73" value="Agent Layer" style="html=1;whiteSpace=wrap;" parent="1" vertex="1">
          <mxGeometry x="770" y="-290" width="150" height="40" as="geometry" />
        </mxCell>
        <mxCell id="ZYq4n5y1qO-wRykseq7i-83" value="DefenseControler" style="swimlane;fontStyle=1;align=center;verticalAlign=top;childLayout=stackLayout;horizontal=1;startSize=26;horizontalStack=0;resizeParent=1;resizeParentMax=0;resizeLast=0;collapsible=1;marginBottom=0;whiteSpace=wrap;html=1;" parent="1" vertex="1">
          <mxGeometry x="1020" y="-214" width="160" height="86" as="geometry" />
        </mxCell>
        <mxCell id="ZYq4n5y1qO-wRykseq7i-84" value="+ field: type" style="text;strokeColor=none;fillColor=none;align=left;verticalAlign=top;spacingLeft=4;spacingRight=4;overflow=hidden;rotatable=0;points=[[0,0.5],[1,0.5]];portConstraint=eastwest;whiteSpace=wrap;html=1;" parent="ZYq4n5y1qO-wRykseq7i-83" vertex="1">
          <mxGeometry y="26" width="160" height="26" as="geometry" />
        </mxCell>
        <mxCell id="ZYq4n5y1qO-wRykseq7i-85" value="" style="line;strokeWidth=1;fillColor=none;align=left;verticalAlign=middle;spacingTop=-1;spacingLeft=3;spacingRight=3;rotatable=0;labelPosition=right;points=[];portConstraint=eastwest;strokeColor=inherit;" parent="ZYq4n5y1qO-wRykseq7i-83" vertex="1">
          <mxGeometry y="52" width="160" height="8" as="geometry" />
        </mxCell>
        <mxCell id="ZYq4n5y1qO-wRykseq7i-86" value="+ method(type): type" style="text;strokeColor=none;fillColor=none;align=left;verticalAlign=top;spacingLeft=4;spacingRight=4;overflow=hidden;rotatable=0;points=[[0,0.5],[1,0.5]];portConstraint=eastwest;whiteSpace=wrap;html=1;" parent="ZYq4n5y1qO-wRykseq7i-83" vertex="1">
          <mxGeometry y="60" width="160" height="26" as="geometry" />
        </mxCell>
        <mxCell id="ZYq4n5y1qO-wRykseq7i-88" style="edgeStyle=orthogonalEdgeStyle;rounded=0;orthogonalLoop=1;jettySize=auto;html=1;entryX=0.498;entryY=1.032;entryDx=0;entryDy=0;entryPerimeter=0;endArrow=none;endFill=0;" parent="1" source="ZYq4n5y1qO-wRykseq7i-10" target="ZYq4n5y1qO-wRykseq7i-86" edge="1">
          <mxGeometry relative="1" as="geometry" />
        </mxCell>
        <mxCell id="ZYq4n5y1qO-wRykseq7i-89" value="EnemyControler" style="swimlane;fontStyle=1;align=center;verticalAlign=top;childLayout=stackLayout;horizontal=1;startSize=26;horizontalStack=0;resizeParent=1;resizeParentMax=0;resizeLast=0;collapsible=1;marginBottom=0;whiteSpace=wrap;html=1;" parent="1" vertex="1">
          <mxGeometry x="1760" y="-200" width="160" height="86" as="geometry" />
        </mxCell>
        <mxCell id="ZYq4n5y1qO-wRykseq7i-90" value="+ field: type" style="text;strokeColor=none;fillColor=none;align=left;verticalAlign=top;spacingLeft=4;spacingRight=4;overflow=hidden;rotatable=0;points=[[0,0.5],[1,0.5]];portConstraint=eastwest;whiteSpace=wrap;html=1;" parent="ZYq4n5y1qO-wRykseq7i-89" vertex="1">
          <mxGeometry y="26" width="160" height="26" as="geometry" />
        </mxCell>
        <mxCell id="ZYq4n5y1qO-wRykseq7i-91" value="" style="line;strokeWidth=1;fillColor=none;align=left;verticalAlign=middle;spacingTop=-1;spacingLeft=3;spacingRight=3;rotatable=0;labelPosition=right;points=[];portConstraint=eastwest;strokeColor=inherit;" parent="ZYq4n5y1qO-wRykseq7i-89" vertex="1">
          <mxGeometry y="52" width="160" height="8" as="geometry" />
        </mxCell>
        <mxCell id="ZYq4n5y1qO-wRykseq7i-92" value="+ method(type): type" style="text;strokeColor=none;fillColor=none;align=left;verticalAlign=top;spacingLeft=4;spacingRight=4;overflow=hidden;rotatable=0;points=[[0,0.5],[1,0.5]];portConstraint=eastwest;whiteSpace=wrap;html=1;" parent="ZYq4n5y1qO-wRykseq7i-89" vertex="1">
          <mxGeometry y="60" width="160" height="26" as="geometry" />
        </mxCell>
        <mxCell id="ZYq4n5y1qO-wRykseq7i-94" style="edgeStyle=orthogonalEdgeStyle;rounded=0;orthogonalLoop=1;jettySize=auto;html=1;entryX=0.496;entryY=1.023;entryDx=0;entryDy=0;entryPerimeter=0;" parent="1" source="ZYq4n5y1qO-wRykseq7i-18" target="ZYq4n5y1qO-wRykseq7i-9" edge="1">
          <mxGeometry relative="1" as="geometry" />
        </mxCell>
        <mxCell id="ZYq4n5y1qO-wRykseq7i-95" style="edgeStyle=orthogonalEdgeStyle;rounded=0;orthogonalLoop=1;jettySize=auto;html=1;entryX=0.501;entryY=1.023;entryDx=0;entryDy=0;entryPerimeter=0;" parent="1" source="ZYq4n5y1qO-wRykseq7i-14" target="ZYq4n5y1qO-wRykseq7i-9" edge="1">
          <mxGeometry relative="1" as="geometry" />
        </mxCell>
        <mxCell id="ZYq4n5y1qO-wRykseq7i-97" style="edgeStyle=orthogonalEdgeStyle;rounded=0;orthogonalLoop=1;jettySize=auto;html=1;entryX=0.498;entryY=0.969;entryDx=0;entryDy=0;entryPerimeter=0;endArrow=none;endFill=0;" parent="1" source="ZYq4n5y1qO-wRykseq7i-6" target="ZYq4n5y1qO-wRykseq7i-92" edge="1">
          <mxGeometry relative="1" as="geometry" />
        </mxCell>
        <mxCell id="ZYq4n5y1qO-wRykseq7i-102" value="Castle" style="swimlane;fontStyle=1;align=center;verticalAlign=top;childLayout=stackLayout;horizontal=1;startSize=26;horizontalStack=0;resizeParent=1;resizeParentMax=0;resizeLast=0;collapsible=1;marginBottom=0;whiteSpace=wrap;html=1;" parent="1" vertex="1">
          <mxGeometry x="2290" y="-50" width="160" height="86" as="geometry" />
        </mxCell>
        <mxCell id="ZYq4n5y1qO-wRykseq7i-103" value="+ field: type" style="text;strokeColor=none;fillColor=none;align=left;verticalAlign=top;spacingLeft=4;spacingRight=4;overflow=hidden;rotatable=0;points=[[0,0.5],[1,0.5]];portConstraint=eastwest;whiteSpace=wrap;html=1;" parent="ZYq4n5y1qO-wRykseq7i-102" vertex="1">
          <mxGeometry y="26" width="160" height="26" as="geometry" />
        </mxCell>
        <mxCell id="ZYq4n5y1qO-wRykseq7i-104" value="" style="line;strokeWidth=1;fillColor=none;align=left;verticalAlign=middle;spacingTop=-1;spacingLeft=3;spacingRight=3;rotatable=0;labelPosition=right;points=[];portConstraint=eastwest;strokeColor=inherit;" parent="ZYq4n5y1qO-wRykseq7i-102" vertex="1">
          <mxGeometry y="52" width="160" height="8" as="geometry" />
        </mxCell>
        <mxCell id="ZYq4n5y1qO-wRykseq7i-105" value="+ method(type): type" style="text;strokeColor=none;fillColor=none;align=left;verticalAlign=top;spacingLeft=4;spacingRight=4;overflow=hidden;rotatable=0;points=[[0,0.5],[1,0.5]];portConstraint=eastwest;whiteSpace=wrap;html=1;" parent="ZYq4n5y1qO-wRykseq7i-102" vertex="1">
          <mxGeometry y="60" width="160" height="26" as="geometry" />
        </mxCell>
        <mxCell id="ZYq4n5y1qO-wRykseq7i-106" value="TowerControler" style="swimlane;fontStyle=1;align=center;verticalAlign=top;childLayout=stackLayout;horizontal=1;startSize=26;horizontalStack=0;resizeParent=1;resizeParentMax=0;resizeLast=0;collapsible=1;marginBottom=0;whiteSpace=wrap;html=1;" parent="1" vertex="1">
          <mxGeometry x="2290" y="-200" width="160" height="86" as="geometry" />
        </mxCell>
        <mxCell id="ZYq4n5y1qO-wRykseq7i-107" value="+ field: type" style="text;strokeColor=none;fillColor=none;align=left;verticalAlign=top;spacingLeft=4;spacingRight=4;overflow=hidden;rotatable=0;points=[[0,0.5],[1,0.5]];portConstraint=eastwest;whiteSpace=wrap;html=1;" parent="ZYq4n5y1qO-wRykseq7i-106" vertex="1">
          <mxGeometry y="26" width="160" height="26" as="geometry" />
        </mxCell>
        <mxCell id="ZYq4n5y1qO-wRykseq7i-108" value="" style="line;strokeWidth=1;fillColor=none;align=left;verticalAlign=middle;spacingTop=-1;spacingLeft=3;spacingRight=3;rotatable=0;labelPosition=right;points=[];portConstraint=eastwest;strokeColor=inherit;" parent="ZYq4n5y1qO-wRykseq7i-106" vertex="1">
          <mxGeometry y="52" width="160" height="8" as="geometry" />
        </mxCell>
        <mxCell id="ZYq4n5y1qO-wRykseq7i-109" value="+ method(type): type" style="text;strokeColor=none;fillColor=none;align=left;verticalAlign=top;spacingLeft=4;spacingRight=4;overflow=hidden;rotatable=0;points=[[0,0.5],[1,0.5]];portConstraint=eastwest;whiteSpace=wrap;html=1;" parent="ZYq4n5y1qO-wRykseq7i-106" vertex="1">
          <mxGeometry y="60" width="160" height="26" as="geometry" />
        </mxCell>
        <mxCell id="ZYq4n5y1qO-wRykseq7i-111" style="edgeStyle=orthogonalEdgeStyle;rounded=0;orthogonalLoop=1;jettySize=auto;html=1;entryX=0.501;entryY=0.964;entryDx=0;entryDy=0;entryPerimeter=0;endArrow=none;endFill=0;" parent="1" source="ZYq4n5y1qO-wRykseq7i-102" target="ZYq4n5y1qO-wRykseq7i-109" edge="1">
          <mxGeometry relative="1" as="geometry" />
        </mxCell>
        <mxCell id="ZYq4n5y1qO-wRykseq7i-114" value="StartScene" style="swimlane;fontStyle=0;childLayout=stackLayout;horizontal=1;startSize=52;fillColor=none;horizontalStack=0;resizeParent=1;resizeParentMax=0;resizeLast=0;collapsible=1;marginBottom=0;whiteSpace=wrap;html=1;" parent="1" vertex="1">
          <mxGeometry x="-570" y="-38" width="140" height="52" as="geometry" />
        </mxCell>
        <mxCell id="ZYq4n5y1qO-wRykseq7i-128" value="Main Loop" style="html=1;whiteSpace=wrap;" parent="1" vertex="1">
          <mxGeometry x="-201" y="-100" width="150" height="40" as="geometry" />
        </mxCell>
        <mxCell id="ZYq4n5y1qO-wRykseq7i-157" style="edgeStyle=orthogonalEdgeStyle;rounded=0;orthogonalLoop=1;jettySize=auto;html=1;exitX=0;exitY=0.5;exitDx=0;exitDy=0;entryX=0.5;entryY=1;entryDx=0;entryDy=0;" parent="1" source="ZYq4n5y1qO-wRykseq7i-129" target="ZYq4n5y1qO-wRykseq7i-155" edge="1">
          <mxGeometry relative="1" as="geometry" />
        </mxCell>
        <mxCell id="ZYq4n5y1qO-wRykseq7i-129" value="Enter" style="swimlane;fontStyle=0;childLayout=stackLayout;horizontal=1;startSize=26;fillColor=none;horizontalStack=0;resizeParent=1;resizeParentMax=0;resizeLast=0;collapsible=1;marginBottom=0;whiteSpace=wrap;html=1;" parent="1" vertex="1">
          <mxGeometry x="-51" y="270" width="140" height="50" as="geometry" />
        </mxCell>
        <mxCell id="ZYq4n5y1qO-wRykseq7i-131" value="Start Scene" style="html=1;whiteSpace=wrap;" parent="1" vertex="1">
          <mxGeometry x="-580" y="-100" width="150" height="40" as="geometry" />
        </mxCell>
        <mxCell id="ZYq4n5y1qO-wRykseq7i-132" value="" style="rounded=0;whiteSpace=wrap;html=1;fillColor=none;" parent="1" vertex="1">
          <mxGeometry x="209" y="-60" width="330" height="580" as="geometry" />
        </mxCell>
        <mxCell id="ZYq4n5y1qO-wRykseq7i-133" value="End Scene" style="html=1;whiteSpace=wrap;" parent="1" vertex="1">
          <mxGeometry x="209" y="-100" width="150" height="40" as="geometry" />
        </mxCell>
        <mxCell id="ZYq4n5y1qO-wRykseq7i-135" value="Scene Layer" style="html=1;whiteSpace=wrap;" parent="1" vertex="1">
          <mxGeometry x="-730" y="-180" width="150" height="40" as="geometry" />
        </mxCell>
        <mxCell id="ZYq4n5y1qO-wRykseq7i-136" value="Scene" style="swimlane;fontStyle=0;childLayout=stackLayout;horizontal=1;startSize=52;fillColor=none;horizontalStack=0;resizeParent=1;resizeParentMax=0;resizeLast=0;collapsible=1;marginBottom=0;whiteSpace=wrap;html=1;" parent="1" vertex="1">
          <mxGeometry x="-181" y="-38" width="140" height="52" as="geometry" />
        </mxCell>
        <mxCell id="ZYq4n5y1qO-wRykseq7i-137" value="Scene" style="swimlane;fontStyle=0;childLayout=stackLayout;horizontal=1;startSize=52;fillColor=none;horizontalStack=0;resizeParent=1;resizeParentMax=0;resizeLast=0;collapsible=1;marginBottom=0;whiteSpace=wrap;html=1;" parent="1" vertex="1">
          <mxGeometry x="230" y="-28" width="140" height="52" as="geometry" />
        </mxCell>
        <mxCell id="ZYq4n5y1qO-wRykseq7i-139" value="Button" style="swimlane;fontStyle=0;childLayout=stackLayout;horizontal=1;startSize=26;fillColor=none;horizontalStack=0;resizeParent=1;resizeParentMax=0;resizeLast=0;collapsible=1;marginBottom=0;whiteSpace=wrap;html=1;" parent="1" vertex="1">
          <mxGeometry x="-544" y="170" width="140" height="52" as="geometry" />
        </mxCell>
        <mxCell id="ZYq4n5y1qO-wRykseq7i-144" style="edgeStyle=orthogonalEdgeStyle;rounded=0;orthogonalLoop=1;jettySize=auto;html=1;entryX=0.5;entryY=1;entryDx=0;entryDy=0;" parent="1" source="ZYq4n5y1qO-wRykseq7i-140" target="ZYq4n5y1qO-wRykseq7i-139" edge="1">
          <mxGeometry relative="1" as="geometry">
            <Array as="points">
              <mxPoint x="-474" y="394" />
            </Array>
          </mxGeometry>
        </mxCell>
        <mxCell id="ZYq4n5y1qO-wRykseq7i-140" value="PlayButton" style="swimlane;fontStyle=0;childLayout=stackLayout;horizontal=1;startSize=26;fillColor=none;horizontalStack=0;resizeParent=1;resizeParentMax=0;resizeLast=0;collapsible=1;marginBottom=0;whiteSpace=wrap;html=1;" parent="1" vertex="1">
          <mxGeometry x="-444" y="368" width="140" height="52" as="geometry" />
        </mxCell>
        <mxCell id="ZYq4n5y1qO-wRykseq7i-143" style="edgeStyle=orthogonalEdgeStyle;rounded=0;orthogonalLoop=1;jettySize=auto;html=1;exitX=0;exitY=0.5;exitDx=0;exitDy=0;entryX=0.5;entryY=1;entryDx=0;entryDy=0;" parent="1" source="ZYq4n5y1qO-wRykseq7i-141" target="ZYq4n5y1qO-wRykseq7i-139" edge="1">
          <mxGeometry relative="1" as="geometry" />
        </mxCell>
        <mxCell id="ZYq4n5y1qO-wRykseq7i-141" value="ExitButton" style="swimlane;fontStyle=0;childLayout=stackLayout;horizontal=1;startSize=26;fillColor=none;horizontalStack=0;resizeParent=1;resizeParentMax=0;resizeLast=0;collapsible=1;marginBottom=0;whiteSpace=wrap;html=1;" parent="1" vertex="1">
          <mxGeometry x="-444" y="268" width="140" height="52" as="geometry" />
        </mxCell>
        <mxCell id="ZYq4n5y1qO-wRykseq7i-145" value="GameTItle" style="swimlane;fontStyle=0;childLayout=stackLayout;horizontal=1;startSize=26;fillColor=none;horizontalStack=0;resizeParent=1;resizeParentMax=0;resizeLast=0;collapsible=1;marginBottom=0;whiteSpace=wrap;html=1;" parent="1" vertex="1">
          <mxGeometry x="-544" y="70" width="140" height="52" as="geometry" />
        </mxCell>
        <mxCell id="ZYq4n5y1qO-wRykseq7i-146" value="EndTitle" style="swimlane;fontStyle=0;childLayout=stackLayout;horizontal=1;startSize=26;fillColor=none;horizontalStack=0;resizeParent=1;resizeParentMax=0;resizeLast=0;collapsible=1;marginBottom=0;whiteSpace=wrap;html=1;" parent="1" vertex="1">
          <mxGeometry x="300" y="70" width="140" height="52" as="geometry" />
        </mxCell>
        <mxCell id="ZYq4n5y1qO-wRykseq7i-153" style="edgeStyle=orthogonalEdgeStyle;rounded=0;orthogonalLoop=1;jettySize=auto;html=1;entryX=0.5;entryY=1;entryDx=0;entryDy=0;" parent="1" source="ZYq4n5y1qO-wRykseq7i-149" target="ZYq4n5y1qO-wRykseq7i-139" edge="1">
          <mxGeometry relative="1" as="geometry">
            <mxPoint x="-518" y="110" as="targetPoint" />
            <Array as="points">
              <mxPoint x="246" y="293" />
              <mxPoint x="246" y="480" />
              <mxPoint x="-474" y="480" />
            </Array>
          </mxGeometry>
        </mxCell>
        <mxCell id="ZYq4n5y1qO-wRykseq7i-149" value="ReplayButton" style="swimlane;fontStyle=0;childLayout=stackLayout;horizontal=1;startSize=26;fillColor=none;horizontalStack=0;resizeParent=1;resizeParentMax=0;resizeLast=0;collapsible=1;marginBottom=0;whiteSpace=wrap;html=1;" parent="1" vertex="1">
          <mxGeometry x="306" y="267" width="140" height="52" as="geometry" />
        </mxCell>
        <mxCell id="ZYq4n5y1qO-wRykseq7i-152" style="edgeStyle=orthogonalEdgeStyle;rounded=0;orthogonalLoop=1;jettySize=auto;html=1;exitX=0;exitY=0.5;exitDx=0;exitDy=0;entryX=0.5;entryY=1;entryDx=0;entryDy=0;endArrow=none;" parent="1" source="ZYq4n5y1qO-wRykseq7i-151" target="ZYq4n5y1qO-wRykseq7i-139" edge="1">
          <mxGeometry relative="1" as="geometry">
            <mxPoint x="-518" y="110" as="targetPoint" />
            <Array as="points">
              <mxPoint x="246" y="193" />
              <mxPoint x="246" y="480" />
              <mxPoint x="-474" y="480" />
            </Array>
          </mxGeometry>
        </mxCell>
        <mxCell id="ZYq4n5y1qO-wRykseq7i-151" value="EndButton" style="swimlane;fontStyle=0;childLayout=stackLayout;horizontal=1;startSize=26;fillColor=none;horizontalStack=0;resizeParent=1;resizeParentMax=0;resizeLast=0;collapsible=1;marginBottom=0;whiteSpace=wrap;html=1;" parent="1" vertex="1">
          <mxGeometry x="306" y="167" width="140" height="52" as="geometry" />
        </mxCell>
        <mxCell id="ZYq4n5y1qO-wRykseq7i-154" value="PlayerApp" style="swimlane;fontStyle=0;childLayout=stackLayout;horizontal=1;startSize=26;fillColor=none;horizontalStack=0;resizeParent=1;resizeParentMax=0;resizeLast=0;collapsible=1;marginBottom=0;whiteSpace=wrap;html=1;" parent="1" vertex="1">
          <mxGeometry x="-171" y="60" width="140" height="52" as="geometry" />
        </mxCell>
        <mxCell id="ZYq4n5y1qO-wRykseq7i-155" value="Path" style="swimlane;fontStyle=0;childLayout=stackLayout;horizontal=1;startSize=26;fillColor=none;horizontalStack=0;resizeParent=1;resizeParentMax=0;resizeLast=0;collapsible=1;marginBottom=0;whiteSpace=wrap;html=1;" parent="1" vertex="1">
          <mxGeometry x="-150" y="174" width="140" height="52" as="geometry" />
        </mxCell>
        <mxCell id="ZYq4n5y1qO-wRykseq7i-159" style="edgeStyle=orthogonalEdgeStyle;rounded=0;orthogonalLoop=1;jettySize=auto;html=1;exitX=0;exitY=0.5;exitDx=0;exitDy=0;entryX=0.5;entryY=1;entryDx=0;entryDy=0;" parent="1" source="ZYq4n5y1qO-wRykseq7i-156" target="ZYq4n5y1qO-wRykseq7i-155" edge="1">
          <mxGeometry relative="1" as="geometry" />
        </mxCell>
        <mxCell id="ZYq4n5y1qO-wRykseq7i-156" value="Exit" style="swimlane;fontStyle=0;childLayout=stackLayout;horizontal=1;startSize=26;fillColor=none;horizontalStack=0;resizeParent=1;resizeParentMax=0;resizeLast=0;collapsible=1;marginBottom=0;whiteSpace=wrap;html=1;" parent="1" vertex="1">
          <mxGeometry x="-51" y="368" width="140" height="52" as="geometry" />
        </mxCell>
        <mxCell id="ZYq4n5y1qO-wRykseq7i-165" style="edgeStyle=orthogonalEdgeStyle;rounded=0;orthogonalLoop=1;jettySize=auto;html=1;entryX=1;entryY=0.5;entryDx=0;entryDy=0;endArrow=none;endFill=0;" parent="1" source="ZYq4n5y1qO-wRykseq7i-164" target="ZYq4n5y1qO-wRykseq7i-11" edge="1">
          <mxGeometry relative="1" as="geometry" />
        </mxCell>
        <mxCell id="ZYq4n5y1qO-wRykseq7i-164" value="bullet" style="swimlane;fontStyle=0;childLayout=stackLayout;horizontal=1;startSize=40;fillColor=none;horizontalStack=0;resizeParent=1;resizeParentMax=0;resizeLast=0;collapsible=1;marginBottom=0;whiteSpace=wrap;html=1;" parent="1" vertex="1">
          <mxGeometry x="1280" y="-35" width="130" height="40" as="geometry" />
        </mxCell>
        <mxCell id="ZYq4n5y1qO-wRykseq7i-167" style="edgeStyle=orthogonalEdgeStyle;rounded=0;orthogonalLoop=1;jettySize=auto;html=1;entryX=0;entryY=0.5;entryDx=0;entryDy=0;endArrow=none;endFill=0;" parent="1" source="ZYq4n5y1qO-wRykseq7i-166" target="ZYq4n5y1qO-wRykseq7i-7" edge="1">
          <mxGeometry relative="1" as="geometry" />
        </mxCell>
        <mxCell id="ZYq4n5y1qO-wRykseq7i-166" value="&lt;div&gt;EnemyFactory&lt;/div&gt;" style="swimlane;fontStyle=0;childLayout=stackLayout;horizontal=1;startSize=40;fillColor=none;horizontalStack=0;resizeParent=1;resizeParentMax=0;resizeLast=0;collapsible=1;marginBottom=0;whiteSpace=wrap;html=1;" parent="1" vertex="1">
          <mxGeometry x="1500" y="-32" width="130" height="40" as="geometry" />
        </mxCell>
        <mxCell id="ewMbLDhpjF-sn63V_yI4-1" value="SoundManager" style="swimlane;fontStyle=0;childLayout=stackLayout;horizontal=1;startSize=26;fillColor=none;horizontalStack=0;resizeParent=1;resizeParentMax=0;resizeLast=0;collapsible=1;marginBottom=0;whiteSpace=wrap;html=1;" vertex="1" parent="1">
          <mxGeometry x="120" y="-660" width="140" height="52" as="geometry" />
        </mxCell>
        <mxCell id="ewMbLDhpjF-sn63V_yI4-3" style="edgeStyle=orthogonalEdgeStyle;rounded=0;orthogonalLoop=1;jettySize=auto;html=1;entryX=1;entryY=0.5;entryDx=0;entryDy=0;endArrow=none;endFill=0;exitX=0;exitY=0.5;exitDx=0;exitDy=0;" edge="1" parent="1" source="ewMbLDhpjF-sn63V_yI4-1" target="ZYq4n5y1qO-wRykseq7i-60">
          <mxGeometry relative="1" as="geometry">
            <Array as="points">
              <mxPoint x="110" y="-634" />
              <mxPoint x="110" y="-620" />
              <mxPoint x="-84" y="-620" />
            </Array>
            <mxPoint x="216" y="-530" as="sourcePoint" />
            <mxPoint x="-74" y="-585" as="targetPoint" />
          </mxGeometry>
        </mxCell>
        <mxCell id="ewMbLDhpjF-sn63V_yI4-4" value="PuseButton" style="swimlane;fontStyle=0;childLayout=stackLayout;horizontal=1;startSize=26;fillColor=none;horizontalStack=0;resizeParent=1;resizeParentMax=0;resizeLast=0;collapsible=1;marginBottom=0;whiteSpace=wrap;html=1;" vertex="1" parent="1">
          <mxGeometry x="-196" y="400" width="140" height="50" as="geometry" />
        </mxCell>
        <mxCell id="ewMbLDhpjF-sn63V_yI4-6" value="" style="endArrow=none;html=1;rounded=0;entryX=0.75;entryY=1;entryDx=0;entryDy=0;" edge="1" parent="1" target="ewMbLDhpjF-sn63V_yI4-4">
          <mxGeometry width="50" height="50" relative="1" as="geometry">
            <mxPoint x="-91" y="480" as="sourcePoint" />
            <mxPoint x="21" y="430" as="targetPoint" />
          </mxGeometry>
        </mxCell>
        <mxCell id="ewMbLDhpjF-sn63V_yI4-7" value="TurretFactory" style="swimlane;fontStyle=0;childLayout=stackLayout;horizontal=1;startSize=40;fillColor=none;horizontalStack=0;resizeParent=1;resizeParentMax=0;resizeLast=0;collapsible=1;marginBottom=0;whiteSpace=wrap;html=1;" vertex="1" parent="1">
          <mxGeometry x="820" y="-40" width="130" height="40" as="geometry" />
        </mxCell>
        <mxCell id="ewMbLDhpjF-sn63V_yI4-9" value="" style="endArrow=none;html=1;rounded=0;entryX=0;entryY=0.5;entryDx=0;entryDy=0;exitX=1;exitY=0.5;exitDx=0;exitDy=0;" edge="1" parent="1" source="ewMbLDhpjF-sn63V_yI4-7" target="ZYq4n5y1qO-wRykseq7i-11">
          <mxGeometry width="50" height="50" relative="1" as="geometry">
            <mxPoint x="920" y="90" as="sourcePoint" />
            <mxPoint x="970" y="40" as="targetPoint" />
          </mxGeometry>
        </mxCell>
      </root>
    </mxGraphModel>
  </diagram>
</mxfile>
